<svg xmlns="http://www.w3.org/2000/svg" viewBox="0 0 64 64" role="img" aria-label="SchoolMed">
  <rect width="64" height="64" rx="14" fill="#f8fafc"/>
  <circle cx="32" cy="32" r="29" fill="#ffffff" stroke="#0f172a" stroke-width="3"/>
  <path d="M18 12h28a5 5 0 0 1 5 5v25c0 10-8 18-19 18S13 52 13 42V17a5 5 0 0 1 5-5Z" fill="#ffffff" stroke="#0f172a" stroke-width="2.4"/>
  <path d="M16 29h32v5H16z" fill="#0ea5e9"/>
  <path d="M31 12c4 5 1 7 5 11 2-4 1-7 4-11 2 6 8 8 8 17 0 8-6 12-14 12s-14-4-14-12c0-7 5-10 6-16 2 4 1 7 5 11 2-4 0-7 4-12Z" fill="#ef1212" stroke="#991b1b" stroke-width="1.2"/>
  <path d="M28 38h8l-2 17h-4z" fill="#111827"/>
  <path d="M21 42c4-3 8-2 11 1v12c-4-3-8-3-11 0V42Z" fill="#fefce8" stroke="#ca8a04" stroke-width="1.5"/>
  <path d="M32 43c3-3 7-4 11-1v13c-3-3-7-3-11 0V43Z" fill="#fefce8" stroke="#ca8a04" stroke-width="1.5"/>
  <circle cx="25" cy="54" r="4.2" fill="none" stroke="#facc15" stroke-width="2"/>
  <circle cx="32" cy="54" r="4.2" fill="none" stroke="#0ea5e9" stroke-width="2"/>
  <circle cx="39" cy="54" r="4.2" fill="none" stroke="#ef1212" stroke-width="2"/>
</svg>
